<mxfile host="app.diagrams.net" agent="Mozilla/5.0 (Windows NT 10.0; Win64; x64) AppleWebKit/537.36 (KHTML, like Gecko) Chrome/129.0.0.0 Safari/537.36" version="24.7.16">
  <diagram name="Página-1" id="dL-2PEndRf_xS9jCNM6H">
    <mxGraphModel grid="1" page="1" gridSize="10" guides="1" tooltips="1" connect="1" arrows="1" fold="1" pageScale="1" pageWidth="1169" pageHeight="827" math="0" shadow="0">
      <root>
        <mxCell id="0" />
        <mxCell id="1" parent="0" />
        <mxCell id="XwPhfJLxni9MD8c7tp3O-27" value="" style="edgeStyle=orthogonalEdgeStyle;rounded=0;orthogonalLoop=1;jettySize=auto;html=1;endArrow=none;endFill=0;" edge="1" parent="1" source="lOwGiP2F06OnfuQiScpJ-1" target="XwPhfJLxni9MD8c7tp3O-25">
          <mxGeometry relative="1" as="geometry" />
        </mxCell>
        <mxCell id="LbFj9fAz_RcV3h9zrnnL-3" style="edgeStyle=orthogonalEdgeStyle;rounded=0;orthogonalLoop=1;jettySize=auto;html=1;entryX=0;entryY=0.5;entryDx=0;entryDy=0;endArrow=none;endFill=0;" edge="1" parent="1" source="lOwGiP2F06OnfuQiScpJ-1" target="LbFj9fAz_RcV3h9zrnnL-18">
          <mxGeometry relative="1" as="geometry">
            <mxPoint x="330" y="315" as="targetPoint" />
          </mxGeometry>
        </mxCell>
        <mxCell id="LbFj9fAz_RcV3h9zrnnL-10" style="edgeStyle=orthogonalEdgeStyle;rounded=0;orthogonalLoop=1;jettySize=auto;html=1;entryX=1;entryY=0.5;entryDx=0;entryDy=0;" edge="1" parent="1" source="lOwGiP2F06OnfuQiScpJ-1" target="lOwGiP2F06OnfuQiScpJ-18">
          <mxGeometry relative="1" as="geometry" />
        </mxCell>
        <mxCell id="LbFj9fAz_RcV3h9zrnnL-11" style="edgeStyle=orthogonalEdgeStyle;rounded=0;orthogonalLoop=1;jettySize=auto;html=1;entryX=1;entryY=0.5;entryDx=0;entryDy=0;" edge="1" parent="1" source="lOwGiP2F06OnfuQiScpJ-1" target="lOwGiP2F06OnfuQiScpJ-7">
          <mxGeometry relative="1" as="geometry" />
        </mxCell>
        <mxCell id="LbFj9fAz_RcV3h9zrnnL-12" style="edgeStyle=orthogonalEdgeStyle;rounded=0;orthogonalLoop=1;jettySize=auto;html=1;" edge="1" parent="1" source="lOwGiP2F06OnfuQiScpJ-1" target="lOwGiP2F06OnfuQiScpJ-5">
          <mxGeometry relative="1" as="geometry">
            <Array as="points">
              <mxPoint x="150" y="315" />
              <mxPoint x="150" y="295" />
            </Array>
          </mxGeometry>
        </mxCell>
        <mxCell id="LbFj9fAz_RcV3h9zrnnL-13" style="edgeStyle=orthogonalEdgeStyle;rounded=0;orthogonalLoop=1;jettySize=auto;html=1;entryX=1;entryY=0.5;entryDx=0;entryDy=0;" edge="1" parent="1" source="lOwGiP2F06OnfuQiScpJ-1" target="lOwGiP2F06OnfuQiScpJ-4">
          <mxGeometry relative="1" as="geometry">
            <Array as="points">
              <mxPoint x="150" y="315" />
              <mxPoint x="150" y="330" />
            </Array>
          </mxGeometry>
        </mxCell>
        <mxCell id="LbFj9fAz_RcV3h9zrnnL-14" style="edgeStyle=orthogonalEdgeStyle;rounded=0;orthogonalLoop=1;jettySize=auto;html=1;entryX=1;entryY=0.5;entryDx=0;entryDy=0;" edge="1" parent="1" source="lOwGiP2F06OnfuQiScpJ-1" target="lOwGiP2F06OnfuQiScpJ-2">
          <mxGeometry relative="1" as="geometry">
            <Array as="points">
              <mxPoint x="150" y="315" />
              <mxPoint x="150" y="365" />
            </Array>
          </mxGeometry>
        </mxCell>
        <mxCell id="LbFj9fAz_RcV3h9zrnnL-15" style="edgeStyle=orthogonalEdgeStyle;rounded=0;orthogonalLoop=1;jettySize=auto;html=1;entryX=1;entryY=0.5;entryDx=0;entryDy=0;" edge="1" parent="1" source="lOwGiP2F06OnfuQiScpJ-1" target="lOwGiP2F06OnfuQiScpJ-17">
          <mxGeometry relative="1" as="geometry" />
        </mxCell>
        <mxCell id="lOwGiP2F06OnfuQiScpJ-1" value="Usuario" style="rounded=0;whiteSpace=wrap;html=1;fillColor=#ffe6cc;strokeColor=#d79b00;shadow=1;glass=0;" vertex="1" parent="1">
          <mxGeometry x="180" y="285" width="120" height="60" as="geometry" />
        </mxCell>
        <mxCell id="lOwGiP2F06OnfuQiScpJ-2" value="id" style="ellipse;whiteSpace=wrap;html=1;" vertex="1" parent="1">
          <mxGeometry x="55" y="350" width="50" height="30" as="geometry" />
        </mxCell>
        <mxCell id="lOwGiP2F06OnfuQiScpJ-4" value="Nombre" style="ellipse;whiteSpace=wrap;html=1;" vertex="1" parent="1">
          <mxGeometry x="55" y="315" width="50" height="30" as="geometry" />
        </mxCell>
        <mxCell id="lOwGiP2F06OnfuQiScpJ-5" value="&lt;div&gt;Foto&lt;/div&gt;" style="ellipse;whiteSpace=wrap;html=1;" vertex="1" parent="1">
          <mxGeometry x="55" y="280" width="50" height="30" as="geometry" />
        </mxCell>
        <mxCell id="lOwGiP2F06OnfuQiScpJ-7" value="&lt;div&gt;Contraseña&lt;/div&gt;" style="ellipse;whiteSpace=wrap;html=1;" vertex="1" parent="1">
          <mxGeometry x="40" y="243.5" width="80" height="30" as="geometry" />
        </mxCell>
        <mxCell id="LbFj9fAz_RcV3h9zrnnL-40" style="edgeStyle=orthogonalEdgeStyle;rounded=0;orthogonalLoop=1;jettySize=auto;html=1;entryX=0;entryY=0.5;entryDx=0;entryDy=0;endArrow=none;endFill=0;" edge="1" parent="1" source="GrMG1oGde4MFlzK2plz8-3" target="Fjb7hFSnomDnf84cg18K-33">
          <mxGeometry relative="1" as="geometry" />
        </mxCell>
        <mxCell id="LbFj9fAz_RcV3h9zrnnL-41" style="edgeStyle=orthogonalEdgeStyle;shape=connector;rounded=0;orthogonalLoop=1;jettySize=auto;html=1;entryX=0;entryY=0.5;entryDx=0;entryDy=0;strokeColor=default;align=center;verticalAlign=middle;fontFamily=Helvetica;fontSize=11;fontColor=default;labelBackgroundColor=default;endArrow=none;endFill=0;" edge="1" parent="1" source="GrMG1oGde4MFlzK2plz8-3" target="Fjb7hFSnomDnf84cg18K-35">
          <mxGeometry relative="1" as="geometry" />
        </mxCell>
        <mxCell id="GrMG1oGde4MFlzK2plz8-3" value="Tarjeta" style="rounded=0;whiteSpace=wrap;html=1;fillColor=#ffe6cc;strokeColor=#d79b00;shadow=1;glass=0;" vertex="1" parent="1">
          <mxGeometry x="880" y="330" width="120" height="60" as="geometry" />
        </mxCell>
        <mxCell id="Fjb7hFSnomDnf84cg18K-42" style="edgeStyle=orthogonalEdgeStyle;shape=connector;rounded=0;orthogonalLoop=1;jettySize=auto;html=1;exitX=0.5;exitY=1;exitDx=0;exitDy=0;entryX=0.5;entryY=0;entryDx=0;entryDy=0;strokeColor=default;align=center;verticalAlign=middle;fontFamily=Helvetica;fontSize=11;fontColor=default;labelBackgroundColor=default;endArrow=none;endFill=0;" edge="1" parent="1" source="lOwGiP2F06OnfuQiScpJ-9" target="GrMG1oGde4MFlzK2plz8-23">
          <mxGeometry relative="1" as="geometry" />
        </mxCell>
        <mxCell id="lOwGiP2F06OnfuQiScpJ-9" value="Pregunta" style="rounded=0;whiteSpace=wrap;html=1;fillColor=#ffe6cc;strokeColor=#d79b00;shadow=1;glass=0;" vertex="1" parent="1">
          <mxGeometry x="770" y="120" width="120" height="60" as="geometry" />
        </mxCell>
        <mxCell id="lOwGiP2F06OnfuQiScpJ-28" style="edgeStyle=orthogonalEdgeStyle;rounded=0;orthogonalLoop=1;jettySize=auto;html=1;exitX=0.5;exitY=1;exitDx=0;exitDy=0;entryX=0.5;entryY=0;entryDx=0;entryDy=0;endArrow=none;endFill=0;" edge="1" parent="1" source="GrMG1oGde4MFlzK2plz8-8" target="lOwGiP2F06OnfuQiScpJ-10">
          <mxGeometry relative="1" as="geometry" />
        </mxCell>
        <mxCell id="GrMG1oGde4MFlzK2plz8-8" value="id" style="ellipse;whiteSpace=wrap;html=1;" vertex="1" parent="1">
          <mxGeometry x="950" y="50" width="50" height="30" as="geometry" />
        </mxCell>
        <mxCell id="lOwGiP2F06OnfuQiScpJ-47" style="edgeStyle=orthogonalEdgeStyle;rounded=0;orthogonalLoop=1;jettySize=auto;html=1;exitX=0.5;exitY=1;exitDx=0;exitDy=0;entryX=0.5;entryY=0;entryDx=0;entryDy=0;endArrow=none;endFill=0;" edge="1" parent="1" source="GrMG1oGde4MFlzK2plz8-9" target="lOwGiP2F06OnfuQiScpJ-9">
          <mxGeometry relative="1" as="geometry" />
        </mxCell>
        <mxCell id="GrMG1oGde4MFlzK2plz8-9" value="id" style="ellipse;whiteSpace=wrap;html=1;" vertex="1" parent="1">
          <mxGeometry x="772.5" y="50" width="50" height="30" as="geometry" />
        </mxCell>
        <mxCell id="lOwGiP2F06OnfuQiScpJ-10" value="Respuesta" style="rounded=0;whiteSpace=wrap;html=1;fillColor=#ffe6cc;strokeColor=#d79b00;shadow=1;glass=0;" vertex="1" parent="1">
          <mxGeometry x="980" y="120" width="120" height="60" as="geometry" />
        </mxCell>
        <mxCell id="lOwGiP2F06OnfuQiScpJ-51" style="edgeStyle=orthogonalEdgeStyle;rounded=0;orthogonalLoop=1;jettySize=auto;html=1;exitX=0.5;exitY=0;exitDx=0;exitDy=0;entryX=0.5;entryY=1;entryDx=0;entryDy=0;endArrow=none;endFill=0;" edge="1" parent="1" source="lOwGiP2F06OnfuQiScpJ-56" target="lOwGiP2F06OnfuQiScpJ-50">
          <mxGeometry relative="1" as="geometry" />
        </mxCell>
        <mxCell id="lOwGiP2F06OnfuQiScpJ-45" style="edgeStyle=orthogonalEdgeStyle;rounded=0;orthogonalLoop=1;jettySize=auto;html=1;exitX=0.5;exitY=1;exitDx=0;exitDy=0;entryX=0.5;entryY=0;entryDx=0;entryDy=0;endArrow=none;endFill=0;" edge="1" parent="1" source="GrMG1oGde4MFlzK2plz8-10" target="lOwGiP2F06OnfuQiScpJ-9">
          <mxGeometry relative="1" as="geometry" />
        </mxCell>
        <mxCell id="lOwGiP2F06OnfuQiScpJ-54" value="" style="edgeStyle=orthogonalEdgeStyle;rounded=0;orthogonalLoop=1;jettySize=auto;html=1;exitX=0.5;exitY=0;exitDx=0;exitDy=0;entryX=0.5;entryY=1;entryDx=0;entryDy=0;endArrow=none;endFill=0;" edge="1" parent="1" source="lOwGiP2F06OnfuQiScpJ-50" target="XwPhfJLxni9MD8c7tp3O-2">
          <mxGeometry relative="1" as="geometry">
            <mxPoint x="940" y="450" as="sourcePoint" />
            <mxPoint x="940" y="390" as="targetPoint" />
          </mxGeometry>
        </mxCell>
        <mxCell id="GrMG1oGde4MFlzK2plz8-16" value="Nombre" style="ellipse;whiteSpace=wrap;html=1;" vertex="1" parent="1">
          <mxGeometry x="1065" y="595" width="50" height="30" as="geometry" />
        </mxCell>
        <mxCell id="lOwGiP2F06OnfuQiScpJ-17" value="&lt;div&gt;Número victorias&lt;/div&gt;" style="ellipse;whiteSpace=wrap;html=1;" vertex="1" parent="1">
          <mxGeometry x="40" y="384" width="80" height="30" as="geometry" />
        </mxCell>
        <mxCell id="lOwGiP2F06OnfuQiScpJ-18" value="&lt;div&gt;Número derrotas&lt;/div&gt;" style="ellipse;whiteSpace=wrap;html=1;" vertex="1" parent="1">
          <mxGeometry x="40" y="210" width="80" height="30" as="geometry" />
        </mxCell>
        <mxCell id="XwPhfJLxni9MD8c7tp3O-19" value="" style="edgeStyle=orthogonalEdgeStyle;rounded=0;orthogonalLoop=1;jettySize=auto;html=1;endArrow=none;endFill=0;" edge="1" parent="1" source="lOwGiP2F06OnfuQiScpJ-23" target="XwPhfJLxni9MD8c7tp3O-17">
          <mxGeometry relative="1" as="geometry" />
        </mxCell>
        <mxCell id="XwPhfJLxni9MD8c7tp3O-21" style="edgeStyle=orthogonalEdgeStyle;rounded=0;orthogonalLoop=1;jettySize=auto;html=1;entryX=1;entryY=0.5;entryDx=0;entryDy=0;endArrow=none;endFill=0;" edge="1" parent="1" source="lOwGiP2F06OnfuQiScpJ-23" target="XwPhfJLxni9MD8c7tp3O-20">
          <mxGeometry relative="1" as="geometry" />
        </mxCell>
        <mxCell id="XwPhfJLxni9MD8c7tp3O-22" style="edgeStyle=orthogonalEdgeStyle;rounded=0;orthogonalLoop=1;jettySize=auto;html=1;entryX=1;entryY=0.5;entryDx=0;entryDy=0;endArrow=none;endFill=0;" edge="1" parent="1" source="lOwGiP2F06OnfuQiScpJ-23" target="GrMG1oGde4MFlzK2plz8-19">
          <mxGeometry relative="1" as="geometry" />
        </mxCell>
        <mxCell id="XwPhfJLxni9MD8c7tp3O-23" style="edgeStyle=orthogonalEdgeStyle;rounded=0;orthogonalLoop=1;jettySize=auto;html=1;entryX=1;entryY=0.5;entryDx=0;entryDy=0;endArrow=none;endFill=0;" edge="1" parent="1" source="lOwGiP2F06OnfuQiScpJ-23" target="GrMG1oGde4MFlzK2plz8-20">
          <mxGeometry relative="1" as="geometry" />
        </mxCell>
        <mxCell id="XwPhfJLxni9MD8c7tp3O-24" style="edgeStyle=orthogonalEdgeStyle;rounded=0;orthogonalLoop=1;jettySize=auto;html=1;entryX=1;entryY=0.5;entryDx=0;entryDy=0;endArrow=none;endFill=0;" edge="1" parent="1" source="lOwGiP2F06OnfuQiScpJ-23" target="lOwGiP2F06OnfuQiScpJ-24">
          <mxGeometry relative="1" as="geometry" />
        </mxCell>
        <mxCell id="lOwGiP2F06OnfuQiScpJ-23" value="Partida" style="rounded=0;whiteSpace=wrap;html=1;fillColor=#ffe6cc;strokeColor=#d79b00;shadow=1;glass=0;" vertex="1" parent="1">
          <mxGeometry x="180" y="560" width="120" height="60" as="geometry" />
        </mxCell>
        <mxCell id="GrMG1oGde4MFlzK2plz8-19" value="&lt;div&gt;Modo&lt;/div&gt;" style="ellipse;whiteSpace=wrap;html=1;" vertex="1" parent="1">
          <mxGeometry x="40" y="555" width="50" height="30" as="geometry" />
        </mxCell>
        <mxCell id="GrMG1oGde4MFlzK2plz8-20" value="Vidas" style="ellipse;whiteSpace=wrap;html=1;" vertex="1" parent="1">
          <mxGeometry x="40" y="590" width="50" height="30" as="geometry" />
        </mxCell>
        <mxCell id="lOwGiP2F06OnfuQiScpJ-24" value="Ganador" style="ellipse;whiteSpace=wrap;html=1;" vertex="1" parent="1">
          <mxGeometry x="40" y="625" width="50" height="30" as="geometry" />
        </mxCell>
        <mxCell id="lOwGiP2F06OnfuQiScpJ-34" value="" style="edgeStyle=orthogonalEdgeStyle;rounded=0;orthogonalLoop=1;jettySize=auto;html=1;exitX=0.5;exitY=1;exitDx=0;exitDy=0;endArrow=none;endFill=0;" edge="1" parent="1" source="lOwGiP2F06OnfuQiScpJ-10" target="lOwGiP2F06OnfuQiScpJ-31">
          <mxGeometry relative="1" as="geometry">
            <mxPoint x="1040" y="180" as="sourcePoint" />
            <mxPoint x="1040" y="240" as="targetPoint" />
          </mxGeometry>
        </mxCell>
        <mxCell id="lOwGiP2F06OnfuQiScpJ-31" value="N" style="text;html=1;align=center;verticalAlign=middle;whiteSpace=wrap;rounded=0;" vertex="1" parent="1">
          <mxGeometry x="1010" y="200" width="60" height="30" as="geometry" />
        </mxCell>
        <mxCell id="GrMG1oGde4MFlzK2plz8-23" value="1" style="text;html=1;align=center;verticalAlign=middle;whiteSpace=wrap;rounded=0;" vertex="1" parent="1">
          <mxGeometry x="800" y="200" width="60" height="30" as="geometry" />
        </mxCell>
        <mxCell id="GrMG1oGde4MFlzK2plz8-15" value="&lt;div&gt;EsCorrecta&lt;/div&gt;" style="ellipse;whiteSpace=wrap;html=1;" vertex="1" parent="1">
          <mxGeometry x="1080" y="50" width="80" height="30" as="geometry" />
        </mxCell>
        <mxCell id="GrMG1oGde4MFlzK2plz8-11" value="Texto" style="ellipse;whiteSpace=wrap;html=1;" vertex="1" parent="1">
          <mxGeometry x="1015" y="50" width="50" height="30" as="geometry" />
        </mxCell>
        <mxCell id="lOwGiP2F06OnfuQiScpJ-29" style="edgeStyle=orthogonalEdgeStyle;rounded=0;orthogonalLoop=1;jettySize=auto;html=1;exitX=0.5;exitY=1;exitDx=0;exitDy=0;endArrow=none;endFill=0;" edge="1" parent="1" source="GrMG1oGde4MFlzK2plz8-15">
          <mxGeometry relative="1" as="geometry">
            <mxPoint x="1040" y="120" as="targetPoint" />
          </mxGeometry>
        </mxCell>
        <mxCell id="XwPhfJLxni9MD8c7tp3O-4" style="edgeStyle=orthogonalEdgeStyle;rounded=0;orthogonalLoop=1;jettySize=auto;html=1;entryX=0;entryY=0.5;entryDx=0;entryDy=0;endArrow=none;endFill=0;" edge="1" parent="1" target="lOwGiP2F06OnfuQiScpJ-12">
          <mxGeometry relative="1" as="geometry">
            <mxPoint x="1000" y="595" as="sourcePoint" />
          </mxGeometry>
        </mxCell>
        <mxCell id="lOwGiP2F06OnfuQiScpJ-50" value="Tiene" style="rhombus;whiteSpace=wrap;html=1;fillColor=#f8cecc;shadow=1;strokeColor=#b85450;gradientColor=#ea6b66;" vertex="1" parent="1">
          <mxGeometry x="915" y="460" width="50" height="50" as="geometry" />
        </mxCell>
        <mxCell id="XwPhfJLxni9MD8c7tp3O-5" style="edgeStyle=orthogonalEdgeStyle;rounded=0;orthogonalLoop=1;jettySize=auto;html=1;entryX=0;entryY=0.5;entryDx=0;entryDy=0;endArrow=none;endFill=0;" edge="1" parent="1" target="GrMG1oGde4MFlzK2plz8-16">
          <mxGeometry relative="1" as="geometry">
            <mxPoint x="1000" y="595" as="sourcePoint" />
          </mxGeometry>
        </mxCell>
        <mxCell id="GrMG1oGde4MFlzK2plz8-10" value="Texto" style="ellipse;whiteSpace=wrap;html=1;" vertex="1" parent="1">
          <mxGeometry x="837.5" y="50" width="50" height="30" as="geometry" />
        </mxCell>
        <mxCell id="lOwGiP2F06OnfuQiScpJ-12" value="id" style="ellipse;whiteSpace=wrap;html=1;" vertex="1" parent="1">
          <mxGeometry x="1065" y="555" width="50" height="30" as="geometry" />
        </mxCell>
        <mxCell id="lOwGiP2F06OnfuQiScpJ-30" style="edgeStyle=orthogonalEdgeStyle;rounded=0;orthogonalLoop=1;jettySize=auto;html=1;exitX=0.5;exitY=1;exitDx=0;exitDy=0;endArrow=none;endFill=0;" edge="1" parent="1" source="GrMG1oGde4MFlzK2plz8-11">
          <mxGeometry relative="1" as="geometry">
            <mxPoint x="1040" y="120" as="targetPoint" />
          </mxGeometry>
        </mxCell>
        <mxCell id="XwPhfJLxni9MD8c7tp3O-2" value="N" style="text;html=1;align=center;verticalAlign=middle;whiteSpace=wrap;rounded=0;" vertex="1" parent="1">
          <mxGeometry x="910" y="410" width="60" height="30" as="geometry" />
        </mxCell>
        <mxCell id="lOwGiP2F06OnfuQiScpJ-52" style="edgeStyle=orthogonalEdgeStyle;rounded=0;orthogonalLoop=1;jettySize=auto;html=1;exitX=0.5;exitY=0;exitDx=0;exitDy=0;entryX=0.5;entryY=1;entryDx=0;entryDy=0;endArrow=none;endFill=0;" edge="1" parent="1" source="XwPhfJLxni9MD8c7tp3O-2" target="GrMG1oGde4MFlzK2plz8-3">
          <mxGeometry relative="1" as="geometry" />
        </mxCell>
        <mxCell id="lOwGiP2F06OnfuQiScpJ-57" value="" style="edgeStyle=orthogonalEdgeStyle;rounded=0;orthogonalLoop=1;jettySize=auto;html=1;exitX=0.5;exitY=0;exitDx=0;exitDy=0;entryX=0.5;entryY=1;entryDx=0;entryDy=0;endArrow=none;endFill=0;" edge="1" parent="1" source="lOwGiP2F06OnfuQiScpJ-11" target="lOwGiP2F06OnfuQiScpJ-56">
          <mxGeometry relative="1" as="geometry">
            <mxPoint x="940" y="550" as="sourcePoint" />
            <mxPoint x="940" y="510" as="targetPoint" />
          </mxGeometry>
        </mxCell>
        <mxCell id="lOwGiP2F06OnfuQiScpJ-56" value="1" style="text;html=1;align=center;verticalAlign=middle;whiteSpace=wrap;rounded=0;" vertex="1" parent="1">
          <mxGeometry x="910" y="520" width="60" height="30" as="geometry" />
        </mxCell>
        <mxCell id="lOwGiP2F06OnfuQiScpJ-11" value="Categoría" style="rounded=0;whiteSpace=wrap;html=1;fillColor=#ffe6cc;strokeColor=#d79b00;shadow=1;glass=0;" vertex="1" parent="1">
          <mxGeometry x="880" y="560" width="120" height="60" as="geometry" />
        </mxCell>
        <mxCell id="XwPhfJLxni9MD8c7tp3O-10" value="" style="edgeStyle=orthogonalEdgeStyle;rounded=0;orthogonalLoop=1;jettySize=auto;html=1;endArrow=none;endFill=0;" edge="1" parent="1" source="lOwGiP2F06OnfuQiScpJ-61" target="XwPhfJLxni9MD8c7tp3O-9">
          <mxGeometry relative="1" as="geometry" />
        </mxCell>
        <mxCell id="lOwGiP2F06OnfuQiScpJ-63" style="edgeStyle=orthogonalEdgeStyle;rounded=0;orthogonalLoop=1;jettySize=auto;html=1;exitX=1;exitY=0.5;exitDx=0;exitDy=0;endArrow=none;endFill=0;" edge="1" parent="1" source="lOwGiP2F06OnfuQiScpJ-58" target="lOwGiP2F06OnfuQiScpJ-61">
          <mxGeometry relative="1" as="geometry" />
        </mxCell>
        <mxCell id="LbFj9fAz_RcV3h9zrnnL-43" style="edgeStyle=orthogonalEdgeStyle;shape=connector;rounded=0;orthogonalLoop=1;jettySize=auto;html=1;entryX=0.5;entryY=1;entryDx=0;entryDy=0;strokeColor=default;align=center;verticalAlign=middle;fontFamily=Helvetica;fontSize=11;fontColor=default;labelBackgroundColor=default;endArrow=none;endFill=0;" edge="1" parent="1" source="lOwGiP2F06OnfuQiScpJ-58" target="LbFj9fAz_RcV3h9zrnnL-42">
          <mxGeometry relative="1" as="geometry" />
        </mxCell>
        <mxCell id="LbFj9fAz_RcV3h9zrnnL-45" style="edgeStyle=orthogonalEdgeStyle;shape=connector;rounded=0;orthogonalLoop=1;jettySize=auto;html=1;entryX=0.5;entryY=1;entryDx=0;entryDy=0;strokeColor=default;align=center;verticalAlign=middle;fontFamily=Helvetica;fontSize=11;fontColor=default;labelBackgroundColor=default;endArrow=none;endFill=0;" edge="1" parent="1" source="lOwGiP2F06OnfuQiScpJ-58" target="LbFj9fAz_RcV3h9zrnnL-44">
          <mxGeometry relative="1" as="geometry" />
        </mxCell>
        <mxCell id="lOwGiP2F06OnfuQiScpJ-58" value="Ronda" style="rounded=0;whiteSpace=wrap;html=1;fillColor=#ffe6cc;strokeColor=#d79b00;shadow=1;glass=0;" vertex="1" parent="1">
          <mxGeometry x="525" y="560" width="120" height="60" as="geometry" />
        </mxCell>
        <mxCell id="lOwGiP2F06OnfuQiScpJ-60" style="edgeStyle=orthogonalEdgeStyle;rounded=0;orthogonalLoop=1;jettySize=auto;html=1;exitX=1;exitY=0.5;exitDx=0;exitDy=0;entryX=0;entryY=0.5;entryDx=0;entryDy=0;endArrow=none;endFill=0;" edge="1" parent="1" source="XwPhfJLxni9MD8c7tp3O-8" target="lOwGiP2F06OnfuQiScpJ-11">
          <mxGeometry relative="1" as="geometry" />
        </mxCell>
        <mxCell id="XwPhfJLxni9MD8c7tp3O-8" value="1" style="text;html=1;align=center;verticalAlign=middle;whiteSpace=wrap;rounded=0;" vertex="1" parent="1">
          <mxGeometry x="800" y="575" width="40" height="30" as="geometry" />
        </mxCell>
        <mxCell id="lOwGiP2F06OnfuQiScpJ-59" style="edgeStyle=orthogonalEdgeStyle;rounded=0;orthogonalLoop=1;jettySize=auto;html=1;exitX=1;exitY=0.5;exitDx=0;exitDy=0;entryX=0;entryY=0.5;entryDx=0;entryDy=0;endArrow=none;endFill=0;" edge="1" parent="1" source="XwPhfJLxni9MD8c7tp3O-9" target="XwPhfJLxni9MD8c7tp3O-8">
          <mxGeometry relative="1" as="geometry" />
        </mxCell>
        <mxCell id="XwPhfJLxni9MD8c7tp3O-9" value="Tiene" style="rhombus;whiteSpace=wrap;html=1;fillColor=#f8cecc;shadow=1;strokeColor=#b85450;gradientColor=#ea6b66;" vertex="1" parent="1">
          <mxGeometry x="725" y="565" width="50" height="50" as="geometry" />
        </mxCell>
        <mxCell id="XwPhfJLxni9MD8c7tp3O-13" value="" style="edgeStyle=orthogonalEdgeStyle;rounded=0;orthogonalLoop=1;jettySize=auto;html=1;endArrow=none;endFill=0;" edge="1" parent="1" source="XwPhfJLxni9MD8c7tp3O-17" target="XwPhfJLxni9MD8c7tp3O-16">
          <mxGeometry relative="1" as="geometry" />
        </mxCell>
        <mxCell id="XwPhfJLxni9MD8c7tp3O-18" value="" style="edgeStyle=orthogonalEdgeStyle;rounded=0;orthogonalLoop=1;jettySize=auto;html=1;endArrow=none;endFill=0;" edge="1" parent="1" source="XwPhfJLxni9MD8c7tp3O-14" target="lOwGiP2F06OnfuQiScpJ-58">
          <mxGeometry relative="1" as="geometry" />
        </mxCell>
        <mxCell id="XwPhfJLxni9MD8c7tp3O-14" value="N" style="text;html=1;align=center;verticalAlign=middle;whiteSpace=wrap;rounded=0;" vertex="1" parent="1">
          <mxGeometry x="460" y="575" width="40" height="30" as="geometry" />
        </mxCell>
        <mxCell id="XwPhfJLxni9MD8c7tp3O-15" style="edgeStyle=orthogonalEdgeStyle;rounded=0;orthogonalLoop=1;jettySize=auto;html=1;exitX=1;exitY=0.5;exitDx=0;exitDy=0;entryX=0;entryY=0.5;entryDx=0;entryDy=0;endArrow=none;endFill=0;" edge="1" parent="1" source="XwPhfJLxni9MD8c7tp3O-16" target="XwPhfJLxni9MD8c7tp3O-14">
          <mxGeometry relative="1" as="geometry" />
        </mxCell>
        <mxCell id="XwPhfJLxni9MD8c7tp3O-16" value="Tiene" style="rhombus;whiteSpace=wrap;html=1;fillColor=#f8cecc;shadow=1;strokeColor=#b85450;gradientColor=#ea6b66;" vertex="1" parent="1">
          <mxGeometry x="385" y="565" width="50" height="50" as="geometry" />
        </mxCell>
        <mxCell id="XwPhfJLxni9MD8c7tp3O-17" value="1" style="text;html=1;align=center;verticalAlign=middle;whiteSpace=wrap;rounded=0;" vertex="1" parent="1">
          <mxGeometry x="330" y="575" width="40" height="30" as="geometry" />
        </mxCell>
        <mxCell id="lOwGiP2F06OnfuQiScpJ-61" value="N" style="text;html=1;align=center;verticalAlign=middle;whiteSpace=wrap;rounded=0;" vertex="1" parent="1">
          <mxGeometry x="670" y="575" width="40" height="30" as="geometry" />
        </mxCell>
        <mxCell id="XwPhfJLxni9MD8c7tp3O-20" value="id" style="ellipse;whiteSpace=wrap;html=1;" vertex="1" parent="1">
          <mxGeometry x="40" y="520" width="50" height="30" as="geometry" />
        </mxCell>
        <mxCell id="XwPhfJLxni9MD8c7tp3O-30" value="" style="edgeStyle=orthogonalEdgeStyle;rounded=0;orthogonalLoop=1;jettySize=auto;html=1;endArrow=none;endFill=0;" edge="1" parent="1" source="XwPhfJLxni9MD8c7tp3O-25" target="XwPhfJLxni9MD8c7tp3O-28">
          <mxGeometry relative="1" as="geometry" />
        </mxCell>
        <mxCell id="XwPhfJLxni9MD8c7tp3O-25" value="N" style="text;html=1;align=center;verticalAlign=middle;whiteSpace=wrap;rounded=0;" vertex="1" parent="1">
          <mxGeometry x="220" y="360" width="40" height="30" as="geometry" />
        </mxCell>
        <mxCell id="XwPhfJLxni9MD8c7tp3O-32" value="" style="edgeStyle=orthogonalEdgeStyle;rounded=0;orthogonalLoop=1;jettySize=auto;html=1;endArrow=none;endFill=0;" edge="1" parent="1" source="XwPhfJLxni9MD8c7tp3O-28" target="XwPhfJLxni9MD8c7tp3O-31">
          <mxGeometry relative="1" as="geometry" />
        </mxCell>
        <mxCell id="XwPhfJLxni9MD8c7tp3O-28" value="Participantes" style="rhombus;whiteSpace=wrap;html=1;fillColor=#f8cecc;shadow=1;strokeColor=#b85450;gradientColor=#ea6b66;" vertex="1" parent="1">
          <mxGeometry x="197.5" y="410" width="85" height="70" as="geometry" />
        </mxCell>
        <mxCell id="XwPhfJLxni9MD8c7tp3O-33" value="" style="edgeStyle=orthogonalEdgeStyle;rounded=0;orthogonalLoop=1;jettySize=auto;html=1;endArrow=none;endFill=0;" edge="1" parent="1" source="XwPhfJLxni9MD8c7tp3O-31" target="lOwGiP2F06OnfuQiScpJ-23">
          <mxGeometry relative="1" as="geometry" />
        </mxCell>
        <mxCell id="XwPhfJLxni9MD8c7tp3O-31" value="N" style="text;html=1;align=center;verticalAlign=middle;whiteSpace=wrap;rounded=0;" vertex="1" parent="1">
          <mxGeometry x="220" y="500" width="40" height="30" as="geometry" />
        </mxCell>
        <mxCell id="Fjb7hFSnomDnf84cg18K-30" style="edgeStyle=orthogonalEdgeStyle;rounded=0;orthogonalLoop=1;jettySize=auto;html=1;exitX=1;exitY=0.5;exitDx=0;exitDy=0;entryX=0;entryY=0.5;entryDx=0;entryDy=0;endArrow=none;endFill=0;" edge="1" parent="1" source="Fjb7hFSnomDnf84cg18K-3" target="lOwGiP2F06OnfuQiScpJ-23">
          <mxGeometry relative="1" as="geometry" />
        </mxCell>
        <mxCell id="Fjb7hFSnomDnf84cg18K-3" value="Estado" style="ellipse;whiteSpace=wrap;html=1;" vertex="1" parent="1">
          <mxGeometry x="40" y="660" width="50" height="30" as="geometry" />
        </mxCell>
        <mxCell id="LbFj9fAz_RcV3h9zrnnL-1" value="Tiene" style="rhombus;whiteSpace=wrap;html=1;fillColor=#f8cecc;shadow=1;strokeColor=#b85450;gradientColor=#ea6b66;" vertex="1" parent="1">
          <mxGeometry x="385" y="290" width="50" height="50" as="geometry" />
        </mxCell>
        <mxCell id="LbFj9fAz_RcV3h9zrnnL-4" style="edgeStyle=orthogonalEdgeStyle;rounded=0;orthogonalLoop=1;jettySize=auto;html=1;entryX=0;entryY=0.5;entryDx=0;entryDy=0;endArrow=none;endFill=0;exitX=1;exitY=0.5;exitDx=0;exitDy=0;" edge="1" parent="1" source="LbFj9fAz_RcV3h9zrnnL-18" target="LbFj9fAz_RcV3h9zrnnL-1">
          <mxGeometry relative="1" as="geometry">
            <mxPoint x="370" y="315" as="sourcePoint" />
          </mxGeometry>
        </mxCell>
        <mxCell id="Fjb7hFSnomDnf84cg18K-9" style="edgeStyle=orthogonalEdgeStyle;rounded=0;orthogonalLoop=1;jettySize=auto;html=1;exitX=0.5;exitY=1;exitDx=0;exitDy=0;entryX=1;entryY=0.5;entryDx=0;entryDy=0;endArrow=none;endFill=0;" edge="1" parent="1" source="Fjb7hFSnomDnf84cg18K-12" target="Fjb7hFSnomDnf84cg18K-6">
          <mxGeometry relative="1" as="geometry" />
        </mxCell>
        <mxCell id="Fjb7hFSnomDnf84cg18K-14" style="edgeStyle=orthogonalEdgeStyle;rounded=0;orthogonalLoop=1;jettySize=auto;html=1;exitX=0.5;exitY=1;exitDx=0;exitDy=0;entryX=0.5;entryY=0;entryDx=0;entryDy=0;endArrow=none;endFill=0;" edge="1" parent="1" source="LbFj9fAz_RcV3h9zrnnL-7" target="Fjb7hFSnomDnf84cg18K-12">
          <mxGeometry relative="1" as="geometry" />
        </mxCell>
        <mxCell id="LbFj9fAz_RcV3h9zrnnL-47" style="edgeStyle=orthogonalEdgeStyle;shape=connector;rounded=0;orthogonalLoop=1;jettySize=auto;html=1;entryX=0.5;entryY=1;entryDx=0;entryDy=0;strokeColor=default;align=center;verticalAlign=middle;fontFamily=Helvetica;fontSize=11;fontColor=default;labelBackgroundColor=default;endArrow=none;endFill=0;" edge="1" parent="1" source="LbFj9fAz_RcV3h9zrnnL-7" target="LbFj9fAz_RcV3h9zrnnL-46">
          <mxGeometry relative="1" as="geometry" />
        </mxCell>
        <mxCell id="LbFj9fAz_RcV3h9zrnnL-50" style="edgeStyle=orthogonalEdgeStyle;shape=connector;rounded=0;orthogonalLoop=1;jettySize=auto;html=1;entryX=0.5;entryY=1;entryDx=0;entryDy=0;strokeColor=default;align=center;verticalAlign=middle;fontFamily=Helvetica;fontSize=11;fontColor=default;labelBackgroundColor=default;endArrow=none;endFill=0;" edge="1" parent="1" source="LbFj9fAz_RcV3h9zrnnL-7" target="LbFj9fAz_RcV3h9zrnnL-48">
          <mxGeometry relative="1" as="geometry" />
        </mxCell>
        <mxCell id="LbFj9fAz_RcV3h9zrnnL-51" style="edgeStyle=orthogonalEdgeStyle;shape=connector;rounded=0;orthogonalLoop=1;jettySize=auto;html=1;entryX=0.5;entryY=1;entryDx=0;entryDy=0;strokeColor=default;align=center;verticalAlign=middle;fontFamily=Helvetica;fontSize=11;fontColor=default;labelBackgroundColor=default;endArrow=none;endFill=0;" edge="1" parent="1" source="LbFj9fAz_RcV3h9zrnnL-7" target="LbFj9fAz_RcV3h9zrnnL-49">
          <mxGeometry relative="1" as="geometry" />
        </mxCell>
        <mxCell id="LbFj9fAz_RcV3h9zrnnL-7" value="Historial" style="rounded=0;whiteSpace=wrap;html=1;fillColor=#ffe6cc;strokeColor=#d79b00;shadow=1;glass=0;" vertex="1" parent="1">
          <mxGeometry x="520" y="285" width="120" height="60" as="geometry" />
        </mxCell>
        <mxCell id="Fjb7hFSnomDnf84cg18K-6" value="Tiene" style="rhombus;whiteSpace=wrap;html=1;fillColor=#f8cecc;shadow=1;strokeColor=#b85450;gradientColor=#ea6b66;" vertex="1" parent="1">
          <mxGeometry x="400" y="430" width="50" height="50" as="geometry" />
        </mxCell>
        <mxCell id="Fjb7hFSnomDnf84cg18K-23" style="edgeStyle=orthogonalEdgeStyle;rounded=0;orthogonalLoop=1;jettySize=auto;html=1;exitX=0.5;exitY=1;exitDx=0;exitDy=0;entryX=0.5;entryY=0;entryDx=0;entryDy=0;endArrow=none;endFill=0;" edge="1" parent="1" source="Fjb7hFSnomDnf84cg18K-25" target="Fjb7hFSnomDnf84cg18K-22">
          <mxGeometry relative="1" as="geometry" />
        </mxCell>
        <mxCell id="LbFj9fAz_RcV3h9zrnnL-55" style="edgeStyle=orthogonalEdgeStyle;shape=connector;rounded=0;orthogonalLoop=1;jettySize=auto;html=1;entryX=0;entryY=0.5;entryDx=0;entryDy=0;strokeColor=default;align=center;verticalAlign=middle;fontFamily=Helvetica;fontSize=11;fontColor=default;labelBackgroundColor=default;endArrow=none;endFill=0;" edge="1" parent="1" source="Fjb7hFSnomDnf84cg18K-7" target="LbFj9fAz_RcV3h9zrnnL-53">
          <mxGeometry relative="1" as="geometry" />
        </mxCell>
        <mxCell id="LbFj9fAz_RcV3h9zrnnL-58" style="edgeStyle=orthogonalEdgeStyle;shape=connector;rounded=0;orthogonalLoop=1;jettySize=auto;html=1;entryX=0;entryY=0.5;entryDx=0;entryDy=0;strokeColor=default;align=center;verticalAlign=middle;fontFamily=Helvetica;fontSize=11;fontColor=default;labelBackgroundColor=default;endArrow=none;endFill=0;" edge="1" parent="1" source="Fjb7hFSnomDnf84cg18K-7" target="LbFj9fAz_RcV3h9zrnnL-56">
          <mxGeometry relative="1" as="geometry" />
        </mxCell>
        <mxCell id="LbFj9fAz_RcV3h9zrnnL-59" style="edgeStyle=orthogonalEdgeStyle;shape=connector;rounded=0;orthogonalLoop=1;jettySize=auto;html=1;entryX=0;entryY=0.5;entryDx=0;entryDy=0;strokeColor=default;align=center;verticalAlign=middle;fontFamily=Helvetica;fontSize=11;fontColor=default;labelBackgroundColor=default;endArrow=none;endFill=0;" edge="1" parent="1" source="Fjb7hFSnomDnf84cg18K-7" target="LbFj9fAz_RcV3h9zrnnL-57">
          <mxGeometry relative="1" as="geometry" />
        </mxCell>
        <mxCell id="Fjb7hFSnomDnf84cg18K-7" value="Ranking" style="rounded=0;whiteSpace=wrap;html=1;fillColor=#ffe6cc;strokeColor=#d79b00;shadow=1;glass=0;" vertex="1" parent="1">
          <mxGeometry x="180" y="20" width="120" height="60" as="geometry" />
        </mxCell>
        <mxCell id="LbFj9fAz_RcV3h9zrnnL-21" style="edgeStyle=orthogonalEdgeStyle;rounded=0;orthogonalLoop=1;jettySize=auto;html=1;entryX=1;entryY=0.5;entryDx=0;entryDy=0;endArrow=none;endFill=0;" edge="1" parent="1" source="Fjb7hFSnomDnf84cg18K-11" target="LbFj9fAz_RcV3h9zrnnL-1">
          <mxGeometry relative="1" as="geometry" />
        </mxCell>
        <mxCell id="LbFj9fAz_RcV3h9zrnnL-22" style="edgeStyle=orthogonalEdgeStyle;rounded=0;orthogonalLoop=1;jettySize=auto;html=1;entryX=0;entryY=0.5;entryDx=0;entryDy=0;endArrow=none;endFill=0;exitX=1;exitY=0.5;exitDx=0;exitDy=0;" edge="1" parent="1" source="Fjb7hFSnomDnf84cg18K-11" target="LbFj9fAz_RcV3h9zrnnL-7">
          <mxGeometry relative="1" as="geometry">
            <mxPoint x="505" y="314.99613899613905" as="sourcePoint" />
            <mxPoint x="520" y="315" as="targetPoint" />
          </mxGeometry>
        </mxCell>
        <mxCell id="Fjb7hFSnomDnf84cg18K-11" value="1" style="text;html=1;align=center;verticalAlign=middle;whiteSpace=wrap;rounded=0;" vertex="1" parent="1">
          <mxGeometry x="460" y="300" width="40" height="30" as="geometry" />
        </mxCell>
        <mxCell id="Fjb7hFSnomDnf84cg18K-12" value="1" style="text;html=1;align=center;verticalAlign=middle;whiteSpace=wrap;rounded=0;" vertex="1" parent="1">
          <mxGeometry x="560" y="390" width="40" height="30" as="geometry" />
        </mxCell>
        <mxCell id="Fjb7hFSnomDnf84cg18K-17" value="" style="edgeStyle=orthogonalEdgeStyle;rounded=0;orthogonalLoop=1;jettySize=auto;html=1;exitX=0;exitY=0.5;exitDx=0;exitDy=0;entryX=1;entryY=0.5;entryDx=0;entryDy=0;endArrow=none;endFill=0;" edge="1" parent="1" source="Fjb7hFSnomDnf84cg18K-6" target="Fjb7hFSnomDnf84cg18K-16">
          <mxGeometry relative="1" as="geometry">
            <mxPoint x="400" y="455" as="sourcePoint" />
            <mxPoint x="265" y="455" as="targetPoint" />
          </mxGeometry>
        </mxCell>
        <mxCell id="Fjb7hFSnomDnf84cg18K-19" style="edgeStyle=orthogonalEdgeStyle;rounded=0;orthogonalLoop=1;jettySize=auto;html=1;exitX=0;exitY=0.5;exitDx=0;exitDy=0;entryX=0.75;entryY=0;entryDx=0;entryDy=0;endArrow=none;endFill=0;" edge="1" parent="1">
          <mxGeometry relative="1" as="geometry">
            <mxPoint x="350" y="455" as="sourcePoint" />
            <mxPoint x="290" y="560" as="targetPoint" />
          </mxGeometry>
        </mxCell>
        <mxCell id="Fjb7hFSnomDnf84cg18K-16" value="N" style="text;html=1;align=center;verticalAlign=middle;whiteSpace=wrap;rounded=0;" vertex="1" parent="1">
          <mxGeometry x="330" y="440" width="40" height="30" as="geometry" />
        </mxCell>
        <mxCell id="LbFj9fAz_RcV3h9zrnnL-18" value="1" style="text;html=1;align=center;verticalAlign=middle;whiteSpace=wrap;rounded=0;" vertex="1" parent="1">
          <mxGeometry x="320" y="300" width="40" height="30" as="geometry" />
        </mxCell>
        <mxCell id="Fjb7hFSnomDnf84cg18K-24" style="edgeStyle=orthogonalEdgeStyle;rounded=0;orthogonalLoop=1;jettySize=auto;html=1;exitX=0.5;exitY=1;exitDx=0;exitDy=0;entryX=0.5;entryY=0;entryDx=0;entryDy=0;endArrow=none;endFill=0;" edge="1" parent="1" source="Fjb7hFSnomDnf84cg18K-27" target="lOwGiP2F06OnfuQiScpJ-1">
          <mxGeometry relative="1" as="geometry" />
        </mxCell>
        <mxCell id="Fjb7hFSnomDnf84cg18K-22" value="Tiene" style="rhombus;whiteSpace=wrap;html=1;fillColor=#f8cecc;shadow=1;strokeColor=#b85450;gradientColor=#ea6b66;" vertex="1" parent="1">
          <mxGeometry x="215" y="163.5" width="50" height="50" as="geometry" />
        </mxCell>
        <mxCell id="Fjb7hFSnomDnf84cg18K-26" value="" style="edgeStyle=orthogonalEdgeStyle;rounded=0;orthogonalLoop=1;jettySize=auto;html=1;exitX=0.5;exitY=1;exitDx=0;exitDy=0;entryX=0.5;entryY=0;entryDx=0;entryDy=0;endArrow=none;endFill=0;" edge="1" parent="1" source="Fjb7hFSnomDnf84cg18K-7" target="Fjb7hFSnomDnf84cg18K-25">
          <mxGeometry relative="1" as="geometry">
            <mxPoint x="240" y="130" as="sourcePoint" />
            <mxPoint x="240" y="180" as="targetPoint" />
          </mxGeometry>
        </mxCell>
        <mxCell id="Fjb7hFSnomDnf84cg18K-25" value="1" style="text;html=1;align=center;verticalAlign=middle;whiteSpace=wrap;rounded=0;" vertex="1" parent="1">
          <mxGeometry x="220" y="110" width="40" height="30" as="geometry" />
        </mxCell>
        <mxCell id="Fjb7hFSnomDnf84cg18K-28" value="" style="edgeStyle=orthogonalEdgeStyle;rounded=0;orthogonalLoop=1;jettySize=auto;html=1;exitX=0.5;exitY=1;exitDx=0;exitDy=0;entryX=0.5;entryY=0;entryDx=0;entryDy=0;endArrow=none;endFill=0;" edge="1" parent="1" source="Fjb7hFSnomDnf84cg18K-22" target="Fjb7hFSnomDnf84cg18K-27">
          <mxGeometry relative="1" as="geometry">
            <mxPoint x="240" y="230" as="sourcePoint" />
            <mxPoint x="240" y="285" as="targetPoint" />
          </mxGeometry>
        </mxCell>
        <mxCell id="Fjb7hFSnomDnf84cg18K-27" value="N" style="text;html=1;align=center;verticalAlign=middle;whiteSpace=wrap;rounded=0;" vertex="1" parent="1">
          <mxGeometry x="210" y="240" width="60" height="30" as="geometry" />
        </mxCell>
        <mxCell id="LbFj9fAz_RcV3h9zrnnL-37" style="edgeStyle=orthogonalEdgeStyle;rounded=0;orthogonalLoop=1;jettySize=auto;html=1;entryX=0;entryY=0.5;entryDx=0;entryDy=0;endArrow=none;endFill=0;" edge="1" parent="1" source="LbFj9fAz_RcV3h9zrnnL-24" target="LbFj9fAz_RcV3h9zrnnL-34">
          <mxGeometry relative="1" as="geometry" />
        </mxCell>
        <mxCell id="LbFj9fAz_RcV3h9zrnnL-38" style="edgeStyle=orthogonalEdgeStyle;rounded=0;orthogonalLoop=1;jettySize=auto;html=1;entryX=0;entryY=0.5;entryDx=0;entryDy=0;endArrow=none;endFill=0;" edge="1" parent="1" source="LbFj9fAz_RcV3h9zrnnL-24" target="LbFj9fAz_RcV3h9zrnnL-35">
          <mxGeometry relative="1" as="geometry" />
        </mxCell>
        <mxCell id="LbFj9fAz_RcV3h9zrnnL-39" style="edgeStyle=orthogonalEdgeStyle;rounded=0;orthogonalLoop=1;jettySize=auto;html=1;entryX=0;entryY=0.5;entryDx=0;entryDy=0;endArrow=none;endFill=0;" edge="1" parent="1" source="LbFj9fAz_RcV3h9zrnnL-24" target="LbFj9fAz_RcV3h9zrnnL-36">
          <mxGeometry relative="1" as="geometry" />
        </mxCell>
        <mxCell id="LbFj9fAz_RcV3h9zrnnL-24" value="Comodín" style="rounded=0;whiteSpace=wrap;html=1;fillColor=#ffe6cc;strokeColor=#d79b00;shadow=1;glass=0;" vertex="1" parent="1">
          <mxGeometry x="350" y="685" width="120" height="60" as="geometry" />
        </mxCell>
        <mxCell id="LbFj9fAz_RcV3h9zrnnL-32" style="edgeStyle=orthogonalEdgeStyle;rounded=0;orthogonalLoop=1;jettySize=auto;html=1;endArrow=none;endFill=0;" edge="1" parent="1" source="LbFj9fAz_RcV3h9zrnnL-25">
          <mxGeometry relative="1" as="geometry">
            <mxPoint x="240" y="630" as="targetPoint" />
          </mxGeometry>
        </mxCell>
        <mxCell id="LbFj9fAz_RcV3h9zrnnL-33" style="edgeStyle=orthogonalEdgeStyle;rounded=0;orthogonalLoop=1;jettySize=auto;html=1;entryX=0.5;entryY=0;entryDx=0;entryDy=0;endArrow=none;endFill=0;exitX=0.5;exitY=1;exitDx=0;exitDy=0;" edge="1" parent="1" source="LbFj9fAz_RcV3h9zrnnL-25" target="LbFj9fAz_RcV3h9zrnnL-26">
          <mxGeometry relative="1" as="geometry">
            <mxPoint x="240.02857142857147" y="680" as="sourcePoint" />
          </mxGeometry>
        </mxCell>
        <mxCell id="LbFj9fAz_RcV3h9zrnnL-25" value="1" style="text;html=1;align=center;verticalAlign=middle;whiteSpace=wrap;rounded=0;" vertex="1" parent="1">
          <mxGeometry x="220" y="640" width="40" height="30" as="geometry" />
        </mxCell>
        <mxCell id="LbFj9fAz_RcV3h9zrnnL-26" value="Tiene" style="rhombus;whiteSpace=wrap;html=1;fillColor=#f8cecc;shadow=1;strokeColor=#b85450;gradientColor=#ea6b66;" vertex="1" parent="1">
          <mxGeometry x="215" y="690" width="50" height="50" as="geometry" />
        </mxCell>
        <mxCell id="LbFj9fAz_RcV3h9zrnnL-29" value="" style="edgeStyle=orthogonalEdgeStyle;rounded=0;orthogonalLoop=1;jettySize=auto;html=1;endArrow=none;endFill=0;" edge="1" parent="1" source="LbFj9fAz_RcV3h9zrnnL-28" target="LbFj9fAz_RcV3h9zrnnL-26">
          <mxGeometry relative="1" as="geometry" />
        </mxCell>
        <mxCell id="LbFj9fAz_RcV3h9zrnnL-30" value="" style="edgeStyle=orthogonalEdgeStyle;rounded=0;orthogonalLoop=1;jettySize=auto;html=1;endArrow=none;endFill=0;" edge="1" parent="1" source="LbFj9fAz_RcV3h9zrnnL-28" target="LbFj9fAz_RcV3h9zrnnL-24">
          <mxGeometry relative="1" as="geometry" />
        </mxCell>
        <mxCell id="LbFj9fAz_RcV3h9zrnnL-28" value="N" style="text;html=1;align=center;verticalAlign=middle;whiteSpace=wrap;rounded=0;" vertex="1" parent="1">
          <mxGeometry x="290" y="700" width="40" height="30" as="geometry" />
        </mxCell>
        <mxCell id="LbFj9fAz_RcV3h9zrnnL-34" value="id" style="ellipse;whiteSpace=wrap;html=1;" vertex="1" parent="1">
          <mxGeometry x="510" y="660" width="50" height="30" as="geometry" />
        </mxCell>
        <mxCell id="LbFj9fAz_RcV3h9zrnnL-35" value="Nombre" style="ellipse;whiteSpace=wrap;html=1;" vertex="1" parent="1">
          <mxGeometry x="510" y="700" width="50" height="30" as="geometry" />
        </mxCell>
        <mxCell id="LbFj9fAz_RcV3h9zrnnL-36" value="Máx." style="ellipse;whiteSpace=wrap;html=1;" vertex="1" parent="1">
          <mxGeometry x="510" y="740" width="50" height="30" as="geometry" />
        </mxCell>
        <mxCell id="Fjb7hFSnomDnf84cg18K-31" value="(N,M)" style="text;html=1;align=center;verticalAlign=middle;resizable=0;points=[];autosize=1;strokeColor=none;fillColor=none;" vertex="1" parent="1">
          <mxGeometry x="180" y="460" width="50" height="30" as="geometry" />
        </mxCell>
        <mxCell id="Fjb7hFSnomDnf84cg18K-33" value="id" style="ellipse;whiteSpace=wrap;html=1;" vertex="1" parent="1">
          <mxGeometry x="1050" y="323" width="50" height="27" as="geometry" />
        </mxCell>
        <mxCell id="Fjb7hFSnomDnf84cg18K-35" value="Dificultad" style="ellipse;whiteSpace=wrap;html=1;" vertex="1" parent="1">
          <mxGeometry x="1050" y="370" width="50" height="30" as="geometry" />
        </mxCell>
        <mxCell id="Fjb7hFSnomDnf84cg18K-40" style="edgeStyle=orthogonalEdgeStyle;rounded=0;orthogonalLoop=1;jettySize=auto;html=1;exitX=0.5;exitY=1;exitDx=0;exitDy=0;entryX=0.5;entryY=1;entryDx=0;entryDy=0;endArrow=none;endFill=0;" edge="1" parent="1" source="Fjb7hFSnomDnf84cg18K-38" target="GrMG1oGde4MFlzK2plz8-23">
          <mxGeometry relative="1" as="geometry">
            <Array as="points">
              <mxPoint x="830" y="263" />
            </Array>
          </mxGeometry>
        </mxCell>
        <mxCell id="Fjb7hFSnomDnf84cg18K-41" style="edgeStyle=orthogonalEdgeStyle;shape=connector;rounded=0;orthogonalLoop=1;jettySize=auto;html=1;exitX=0.5;exitY=0;exitDx=0;exitDy=0;entryX=0.5;entryY=1;entryDx=0;entryDy=0;strokeColor=default;align=center;verticalAlign=middle;fontFamily=Helvetica;fontSize=11;fontColor=default;labelBackgroundColor=default;endArrow=none;endFill=0;" edge="1" parent="1" source="Fjb7hFSnomDnf84cg18K-38" target="lOwGiP2F06OnfuQiScpJ-31">
          <mxGeometry relative="1" as="geometry" />
        </mxCell>
        <mxCell id="Fjb7hFSnomDnf84cg18K-38" value="" style="triangle;whiteSpace=wrap;html=1;rotation=90;fillColor=#f8cecc;gradientColor=#ea6b66;strokeColor=#b85450;" vertex="1" parent="1">
          <mxGeometry x="922.5" y="235" width="35" height="55" as="geometry" />
        </mxCell>
        <mxCell id="Fjb7hFSnomDnf84cg18K-44" value="" style="edgeStyle=orthogonalEdgeStyle;rounded=0;orthogonalLoop=1;jettySize=auto;html=1;exitX=1;exitY=0.5;exitDx=0;exitDy=0;entryX=0.5;entryY=0;entryDx=0;entryDy=0;endArrow=none;endFill=0;" edge="1" parent="1" source="Fjb7hFSnomDnf84cg18K-38" target="Fjb7hFSnomDnf84cg18K-43">
          <mxGeometry relative="1" as="geometry">
            <mxPoint x="940" y="289" as="sourcePoint" />
            <mxPoint x="940" y="330" as="targetPoint" />
          </mxGeometry>
        </mxCell>
        <mxCell id="Fjb7hFSnomDnf84cg18K-45" style="edgeStyle=orthogonalEdgeStyle;shape=connector;rounded=0;orthogonalLoop=1;jettySize=auto;html=1;exitX=0.5;exitY=1;exitDx=0;exitDy=0;entryX=0.5;entryY=0;entryDx=0;entryDy=0;strokeColor=default;align=center;verticalAlign=middle;fontFamily=Helvetica;fontSize=11;fontColor=default;labelBackgroundColor=default;endArrow=none;endFill=0;" edge="1" parent="1" source="Fjb7hFSnomDnf84cg18K-43" target="GrMG1oGde4MFlzK2plz8-3">
          <mxGeometry relative="1" as="geometry" />
        </mxCell>
        <mxCell id="Fjb7hFSnomDnf84cg18K-43" value="1" style="text;html=1;align=center;verticalAlign=middle;whiteSpace=wrap;rounded=0;" vertex="1" parent="1">
          <mxGeometry x="910" y="290" width="60" height="30" as="geometry" />
        </mxCell>
        <mxCell id="LbFj9fAz_RcV3h9zrnnL-42" value="id" style="ellipse;whiteSpace=wrap;html=1;" vertex="1" parent="1">
          <mxGeometry x="530" y="500" width="50" height="30" as="geometry" />
        </mxCell>
        <mxCell id="LbFj9fAz_RcV3h9zrnnL-44" value="tiempo" style="ellipse;whiteSpace=wrap;html=1;" vertex="1" parent="1">
          <mxGeometry x="590" y="500" width="50" height="30" as="geometry" />
        </mxCell>
        <mxCell id="LbFj9fAz_RcV3h9zrnnL-46" value="id" style="ellipse;whiteSpace=wrap;html=1;" vertex="1" parent="1">
          <mxGeometry x="490" y="213.5" width="50" height="30" as="geometry" />
        </mxCell>
        <mxCell id="LbFj9fAz_RcV3h9zrnnL-48" value="Fecha" style="ellipse;whiteSpace=wrap;html=1;" vertex="1" parent="1">
          <mxGeometry x="550" y="213.5" width="50" height="30" as="geometry" />
        </mxCell>
        <mxCell id="LbFj9fAz_RcV3h9zrnnL-49" value="Resultado" style="ellipse;whiteSpace=wrap;html=1;" vertex="1" parent="1">
          <mxGeometry x="610" y="213.5" width="70" height="30" as="geometry" />
        </mxCell>
        <mxCell id="LbFj9fAz_RcV3h9zrnnL-53" value="id" style="ellipse;whiteSpace=wrap;html=1;" vertex="1" parent="1">
          <mxGeometry x="340" y="10" width="50" height="30" as="geometry" />
        </mxCell>
        <mxCell id="LbFj9fAz_RcV3h9zrnnL-56" value="Nombre_usuario" style="ellipse;whiteSpace=wrap;html=1;" vertex="1" parent="1">
          <mxGeometry x="340" y="50" width="110" height="30" as="geometry" />
        </mxCell>
        <mxCell id="LbFj9fAz_RcV3h9zrnnL-57" value="Rondas" style="ellipse;whiteSpace=wrap;html=1;" vertex="1" parent="1">
          <mxGeometry x="340" y="90" width="60" height="30" as="geometry" />
        </mxCell>
      </root>
    </mxGraphModel>
  </diagram>
</mxfile>
